HIERARCHY
ROOT Hips
{
	OFFSET 0.000000 0.000000 0.000000 
	CHANNELS 6 Xposition Yposition Zposition Zrotation Yrotation Xrotation
	JOINT LeftUpLeg
	{
		OFFSET 1.363060 -1.794630 0.839290 
		CHANNELS 3 Zrotation Yrotation Xrotation
		JOINT LeftLeg
		{
			OFFSET 2.448110 -6.726130 0.000000 
			CHANNELS 3 Zrotation Yrotation Xrotation
			JOINT LeftFoot
			{
				OFFSET 2.562200 -7.039590 0.000000 
				CHANNELS 3 Zrotation Yrotation Xrotation
				JOINT LeftToeBase
				{
					OFFSET 0.157640 -0.433110 2.322550 
					CHANNELS 3 Zrotation Yrotation Xrotation
					End Site
					{
						OFFSET 0.000000 0.000000 0.000000 
					}
				}
			}
		}
	}
	JOINT RightUpLeg
	{
		OFFSET -1.305520 -1.794630 0.839290 
		CHANNELS 3 Zrotation Yrotation Xrotation
		JOINT RightLeg
		{
			OFFSET -2.542530 -6.985550 0.000000 
			CHANNELS 3 Zrotation Yrotation Xrotation
			JOINT RightFoot
			{
				OFFSET -2.568260 -7.056230 0.000000 
				CHANNELS 3 Zrotation Yrotation Xrotation
				JOINT RightToeBase
				{
					OFFSET -0.164730 -0.452590 2.363150 
					CHANNELS 3 Zrotation Yrotation Xrotation
					End Site
					{
						OFFSET 0.000000 0.000000 0.000000 
					}
				}
			}
		}
	}
	JOINT Spine
	{
		OFFSET 0.028270 2.035590 -0.193380 
		CHANNELS 3 Zrotation Yrotation Xrotation
		JOINT Spine1
		{
			OFFSET 0.056720 2.048850 -0.042750 
			CHANNELS 3 Zrotation Yrotation Xrotation
			JOINT Neck1
			{
				OFFSET -0.054170 1.746240 0.172020 
				CHANNELS 3 Zrotation Yrotation Xrotation
				JOINT Head
				{
					OFFSET 0.104070 1.761360 -0.123970 
					CHANNELS 3 Zrotation Yrotation Xrotation
					End Site
					{
						OFFSET 0.000000 0.000000 0.000000 
					}
				}
			}
			JOINT LeftArm
			{
				OFFSET 3.362410 1.200890 -0.311210 
				CHANNELS 3 Zrotation Yrotation Xrotation
				JOINT LeftForeArm
				{
					OFFSET 4.983000 -0.000000 -0.000000 
					CHANNELS 3 Zrotation Yrotation Xrotation
					JOINT LeftHand
					{
						OFFSET 3.483560 -0.000000 -0.000000 
						CHANNELS 3 Zrotation Yrotation Xrotation
						JOINT LeftHandIndex1
						{
							OFFSET 0.715260 -0.000000 -0.000000 
							CHANNELS 3 Zrotation Yrotation Xrotation
							End Site
							{
								OFFSET 0.000000 0.000000 0.000000 
							}
						}
					}
				}
			}
			JOINT RightArm
			{
				OFFSET -3.136600 1.374050 -0.404650 
				CHANNELS 3 Zrotation Yrotation Xrotation
				JOINT RightForeArm
				{
					OFFSET -5.241900 -0.000000 -0.000000 
					CHANNELS 3 Zrotation Yrotation Xrotation
					JOINT RightHand
					{
						OFFSET -3.444170 -0.000000 -0.000000 
						CHANNELS 3 Zrotation Yrotation Xrotation
						JOINT RightHandIndex1
						{
							OFFSET -0.622530 -0.000000 -0.000000 
							CHANNELS 3 Zrotation Yrotation Xrotation
							End Site
							{
								OFFSET 0.000000 0.000000 0.000000 
							}
						}
					}
				}
			}
		}
	}
}
MOTION
Frames: 10
Frame Time: 0.041667
-29.948813 17.470465 1.367810 32.391214 86.523988 26.427550 -16.571356 4.829037 12.912808 -1.795994 0.763894 2.348645 -0.838664 10.254139 -11.485233 0.225500 -3.056800 -8.436900 18.721284 -11.944950 16.041569 -0.708393 -3.360262 4.207333 -0.354836 4.114539 -12.169178 -0.614200 -5.015900 13.953900 0.369049 1.717181 -2.665844 -1.648820 0.618549 1.445462 5.594681 0.073777 7.190328 -0.626400 0.395400 9.699000 -91.206822 0.518778 40.224764 10.666415 -19.602897 -2.064605 -0.060573 0.706678 17.579005 -7.125000 0.000000 0.000000 88.995406 -4.653037 40.885528 -19.575154 34.005714 -5.183655 0.601687 -2.860084 2.130301 7.125000 0.000000 0.000000 
-29.945438 17.473227 1.368219 31.502491 86.517484 25.487011 -16.676621 4.436493 13.294234 -1.824200 0.642547 2.042257 -0.897560 10.745499 -11.733585 0.192300 -2.824400 -7.790300 18.828811 -11.929817 16.116866 -0.704807 -3.348271 4.165126 -0.357063 4.090415 -12.200992 -0.585200 -4.898200 13.618400 0.371914 1.748620 -2.659240 -1.677328 0.629154 1.479792 5.593822 0.040423 7.305312 -0.638700 0.391700 9.780400 -91.208094 0.444273 40.109488 10.640122 -19.564680 -2.056605 -0.062045 0.711106 17.682208 -7.125000 0.000000 0.000000 89.030204 -4.628623 40.960907 -19.549889 33.976967 -5.161551 0.585714 -2.847432 2.058144 7.125000 0.000000 0.000000 
-29.951166 17.470567 1.370469 31.997017 86.657559 26.064982 -16.740214 4.036994 13.312917 -1.843145 0.605119 1.947138 -0.928161 10.978907 -11.858960 0.206600 -2.926400 -8.073900 18.902911 -11.870203 16.051410 -0.703155 -3.330103 4.113664 -0.362448 3.900426 -12.311906 -0.594200 -4.934900 13.722900 0.376549 1.697423 -2.689081 -1.666350 0.606633 1.411471 5.603835 0.009049 7.389770 -0.635300 0.384600 9.846500 -91.264743 0.394083 39.856610 10.589649 -19.486737 -2.040962 -0.056885 0.715342 17.965552 -7.125000 0.000000 0.000000 89.027423 -4.646287 41.028345 -19.577059 33.989849 -5.157056 0.583567 -2.832294 1.903959 7.125000 0.000000 0.000000 
-29.954030 17.470158 1.372617 31.969965 86.680183 26.047837 -16.521019 4.473700 12.977218 -1.812861 0.705709 2.214121 -0.879597 10.547764 -11.575079 0.223600 -3.043700 -8.400400 18.975116 -11.796280 16.057069 -0.701640 -3.327847 4.107407 -0.360782 3.731843 -12.290160 -0.585100 -4.897800 13.617300 0.376021 1.703970 -2.700062 -1.657902 0.611615 1.357095 5.642757 0.007680 7.404093 -0.599600 0.385400 9.841400 -91.279818 0.372172 39.776195 10.580778 -19.469899 -2.038106 -0.053982 0.716810 18.213208 -7.125000 0.000000 0.000000 89.013332 -4.682661 41.096024 -19.639595 34.053044 -5.180599 0.597139 -2.834828 1.712196 7.125000 0.000000 0.000000 
-29.954030 17.469851 1.373538 31.512113 86.673142 25.576172 -16.338589 4.836077 12.764261 -1.788142 0.780271 2.416682 -0.840756 10.212075 -11.380004 0.241100 -3.159900 -8.724400 19.058361 -11.738076 16.087974 -0.700284 -3.328175 4.104733 -0.359939 3.660034 -12.276853 -0.568000 -4.826700 13.415000 0.367485 1.724614 -2.696679 -1.710319 0.623734 1.337556 5.680061 0.029122 7.353760 -0.562300 0.392500 9.764800 -91.194750 0.378447 39.939893 10.631057 -19.539890 -2.053808 -0.057995 0.714293 18.173208 -7.125000 0.000000 0.000000 89.056830 -4.705149 41.122057 -19.694722 34.125541 -5.203898 0.613755 -2.841695 1.553662 7.125000 0.000000 0.000000 
-29.952700 17.469442 1.373640 31.375326 86.645714 25.443836 -16.374148 4.787990 12.823453 -1.792663 0.764634 2.375251 -0.844246 10.264620 -11.465734 0.238400 -3.142300 -8.675300 19.025805 -11.808283 16.050188 -0.700599 -3.339126 4.130022 -0.362874 3.773284 -12.331769 -0.551500 -4.757500 13.218300 0.356794 1.744477 -2.688309 -1.729315 0.634661 1.334366 5.785705 0.070921 7.250898 -0.460000 0.404300 9.642200 -91.144358 0.347483 39.993894 10.651300 -19.566608 -2.059952 -0.061005 0.714177 18.178365 -7.125000 0.000000 0.000000 89.067878 -4.730065 41.159193 -19.728083 34.170264 -5.212621 0.616887 -2.837537 1.543342 7.125000 0.000000 0.000000 
-29.951882 17.469954 1.373333 32.654723 86.616748 26.709912 -16.410213 5.043750 12.663731 -1.778551 0.820705 2.503749 -0.814811 10.017041 -11.301957 0.233500 -3.109900 -8.584900 18.790682 -11.968462 16.046451 -0.701177 -3.341209 4.145539 -0.363203 3.913232 -12.330042 -0.535500 -4.688800 13.023100 0.347692 1.735254 -2.690454 -1.717432 0.631794 1.388189 5.697953 0.052997 7.460444 -0.538900 0.409500 9.849100 -91.183669 0.269892 39.718110 10.633699 -19.541477 -2.055937 -0.054808 0.718901 18.475177 -7.125000 0.000000 0.000000 89.022781 -4.749433 41.311262 -19.787090 34.216364 -5.230947 0.603048 -2.829766 1.548897 7.125000 0.000000 0.000000 
-29.949938 17.470567 1.371492 33.884537 86.671417 27.913968 -16.377863 5.322554 12.471751 -1.758135 0.891523 2.679289 -0.772676 9.649969 -11.059930 0.219000 -3.012800 -8.314400 18.643150 -12.060422 16.134061 -0.699121 -3.320769 4.097013 -0.361581 3.925803 -12.284646 -0.555600 -4.774900 13.267600 0.343958 1.699241 -2.689929 -1.725664 0.617699 1.426567 5.575731 0.063630 7.592930 -0.630900 0.417500 9.970800 -91.231493 0.174928 39.547141 10.596261 -19.487478 -2.044726 -0.054749 0.725711 18.659792 -7.125000 0.000000 0.000000 88.993765 -4.781988 41.401781 -19.827607 34.251220 -5.247394 0.593235 -2.828223 1.541704 7.125000 0.000000 0.000000 
-29.949018 17.470260 1.370060 33.614402 86.759915 27.627684 -16.465850 4.927004 12.731351 -1.780623 0.822203 2.508109 -0.805350 9.944279 -11.269130 0.219100 -3.013100 -8.315200 18.733547 -12.051113 16.196454 -0.695750 -3.302931 4.039013 -0.361424 3.850787 -12.276090 -0.608900 -4.994700 13.893400 0.356519 1.673317 -2.690511 -1.727574 0.604139 1.424114 5.445649 0.074277 7.657230 -0.708600 0.413700 9.999700 -91.281152 0.080181 39.558850 10.534296 -19.395866 -2.023855 -0.061585 0.731685 18.736470 -7.125000 0.000000 0.000000 88.919741 -4.838754 41.497831 -19.894562 34.310738 -5.272238 0.607596 -2.828030 1.352229 7.125000 0.000000 0.000000 
-29.950859 17.469851 1.370981 32.718824 86.778025 26.715764 -16.512506 4.604891 12.992465 -1.801418 0.754303 2.345278 -0.841304 10.277311 -11.547818 0.199300 -2.874900 -7.930800 18.809484 -12.116305 16.146248 -0.696614 -3.320786 4.073348 -0.358281 3.975385 -12.215199 -0.638000 -5.110200 14.223300 0.370929 1.688697 -2.692616 -1.712691 0.609232 1.388508 5.359118 0.130728 7.679375 -0.754800 0.431700 10.002800 -91.318426 0.038223 39.599613 10.509354 -19.358970 -2.015386 -0.067095 0.735574 18.727845 -7.125000 0.000000 0.000000 88.851219 -4.909784 41.508970 -19.924873 34.334662 -5.291719 0.634329 -2.838665 1.343473 7.125000 0.000000 0.000000 
